<svg width="375" height="384" viewBox="0 0 375 384" fill="none" xmlns="http://www.w3.org/2000/svg">
<path d="M279.247 151.114C278.595 142.88 285.516 134.764 293.631 134.122C301.746 133.479 308.073 136.397 308.725 144.631C309.376 152.866 304.83 156.538 296.715 157.18C288.6 157.822 279.899 159.349 279.247 151.114Z" fill="#F89945"/>
<path d="M20.3339 229.418C12.7906 134.117 92.8928 40.1847 186.813 32.7506C280.733 25.3166 353.952 59.0858 361.496 154.386C369.039 249.687 316.42 292.185 222.5 299.619C128.58 307.053 27.8772 324.718 20.3339 229.418Z" fill="#FBDF6A" fill-opacity="0.21"/>
<path d="M22.6515 64.9405C10.8132 54.7073 9.88875 33.9207 20.5649 21.57C31.2411 9.21926 44.0945 4.222 55.9328 14.4553C67.7711 24.6885 66.1792 36.095 55.503 48.4457C44.8268 60.7964 34.4898 75.1738 22.6515 64.9405Z" fill="#FBDF6A" fill-opacity="0.21"/>
<path d="M368.79 306.124C379.855 317.189 375.689 341.569 360.279 356.978C344.87 372.388 324.415 374.646 317.737 368.26C311.059 361.874 311.377 343.644 326.787 328.235C342.196 312.825 357.725 295.059 368.79 306.124Z" fill="#FBDF6A" fill-opacity="0.21"/>
<path d="M69.3229 250.524C63.3508 255.94 52.9828 255.469 47.6784 249.619C42.374 243.77 40.8785 237.169 46.8506 231.754C52.8227 226.338 58.352 227.638 63.6564 233.487C68.9608 239.337 75.295 245.108 69.3229 250.524Z" fill="#FBD246"/>
<path d="M202.95 218.146C202.95 218.146 199.216 229.956 200.812 233.581C202.408 237.206 245.177 265.917 278.45 270.122C278.942 270.18 279.439 270.134 279.912 269.987C280.385 269.84 280.822 269.595 281.195 269.268C283.94 266.868 290.467 260.842 291.377 256.959C292.542 252.029 267.12 258.038 202.95 218.146Z" fill="#F89945"/>
<path d="M212.147 232.596C215.349 236.105 219.926 234.359 222.711 237.643C225.496 240.927 226.025 241.872 229.834 241.183C230.538 241.055 231.162 241.76 231.611 242.144C235.18 245.124 237.165 246.79 242.703 247.303C243.866 247.287 244.998 247.678 245.904 248.408C248.682 250.418 252.093 251.357 255.507 251.051C255.749 251.04 255.99 251.084 256.212 251.179C258.597 252.317 258.821 254.191 261.014 255.793C264.391 258.212 267.512 260.423 271.401 257.684C272.03 257.351 272.755 257.249 273.45 257.395C277.484 258.1 276.923 262.554 282.189 260.599C284.91 259.622 285.743 262.025 287.183 263.146C289.037 261.347 290.469 259.158 291.377 256.738C292.545 251.836 267.048 257.812 202.688 218.146C201.712 221.295 200.952 224.506 200.415 227.758C202.4 231.956 209.394 229.617 212.147 232.596Z" fill="#D77124"/>
<path opacity="0.55" d="M254.192 258.418C251.043 253.989 246.937 247.603 246.58 241.858C231.984 235.612 217.851 228.357 204.287 220.146C204.287 220.146 201.317 229.775 202.859 232.84C204.092 235.279 230.448 252.401 256.415 261.146C255.587 260.264 254.873 259.365 254.192 258.418Z" fill="#CD4200"/>
<path d="M251.047 214.258C251.047 214.258 212.896 201.461 209.355 204.66C205.813 207.859 203.189 216.065 205.008 219.537C206.827 223.008 243.513 240.044 249.325 243.244C271.603 255.529 289.294 253.833 290.293 254.137C291.291 254.441 300.885 247.147 297.81 238.301C294.945 229.998 257.55 217.761 251.047 214.258Z" fill="#BE5B2A"/>
<path d="M252.736 235.942C249.591 231.647 247.096 226.916 245.33 221.9C244.457 218.507 243.85 215.053 243.514 211.568C235.481 209.056 222.918 205.298 215.351 204.146C211.512 211.711 211.19 219.213 215.866 226.538C227.561 233.127 244.944 241.652 249.169 242.948C251.049 243.523 255.354 244.691 260.415 246.146C257.615 242.931 255.049 239.521 252.736 235.942V235.942Z" fill="#AE4D25"/>
<path d="M235.873 216.384C241.85 218.975 246.385 223.069 251.689 226.748C256.121 229.622 260.326 232.83 264.267 236.345C267.36 239.304 272.535 248.517 277.086 245.574C280.499 243.335 284.617 243.526 288.463 242.999C291.734 242.493 295.068 242.558 298.317 243.191C298.544 241.527 298.374 239.834 297.821 238.248C294.969 229.995 257.761 217.759 251.272 214.256C251.272 214.256 213.296 201.461 209.771 204.66C208.835 205.554 208.041 206.584 207.415 207.715C217.446 208.866 226.515 212.257 235.873 216.384Z" fill="#953E25"/>
<path d="M203.433 218.152C206.279 218.108 209.122 218.336 211.924 218.832C214.892 219.56 221.404 225.605 229.479 227.789C237.555 229.973 234.986 234.309 244.45 236.572C253.914 238.835 254.744 243.25 257.967 243.629C261.191 244.009 269.043 248.456 270.607 249.738C272.171 251.02 284.476 249.5 287.541 251.811C290.605 254.121 295.281 252.697 295.393 254.438C295.504 256.178 295.393 260.103 290.222 258.932C285.051 257.761 282.019 258.441 280.359 256.542C278.699 254.643 264.271 255.704 263.681 253.156C263.09 250.608 258.079 248.567 253.531 247.19C248.982 245.813 247.993 243.677 242.359 242.443C236.725 241.208 230.453 235.701 227.708 235.78C224.963 235.859 217.494 233.533 216.44 231.175C215.387 228.818 209.849 225.083 207.902 225.21C205.955 225.336 203.162 219.339 203.433 218.152Z" fill="#7BB027"/>
<path d="M209.284 216.812C209.284 216.684 209.284 216.539 209.46 216.716C209.983 216.593 210.521 216.55 211.057 216.588V216.443C211.711 216.556 212.446 216.443 213.069 216.443C213.062 216.406 213.062 216.368 213.069 216.331C214.396 216.834 215.75 217.262 217.125 217.614C218.354 218.272 219.616 220.053 217.987 220.984C217.236 221.401 216.39 221.112 216.071 222.139C216.003 222.534 216.021 222.939 216.122 223.327C216.224 223.714 216.408 224.075 216.661 224.385C218.191 225.595 219.929 226.514 221.787 227.096C223.209 227.594 226.115 228.701 227.057 226.888C227.44 226.422 226.77 225.7 226.929 225.091C227.051 224.755 227.266 224.461 227.549 224.245C227.832 224.029 228.172 223.899 228.526 223.871C229.314 224.187 230.142 224.392 230.985 224.481C231.965 224.976 232.992 225.369 234.051 225.652C234.922 226.092 235.764 226.585 236.574 227.128C236.989 227.658 237.389 228.316 237.836 228.733C238.283 229.15 238.411 230.61 237.644 231.252C237.181 231.637 236.494 231.38 236.047 231.476C235.493 231.643 234.957 231.869 234.45 232.15C234.383 232.423 234.374 232.707 234.423 232.983C234.473 233.26 234.58 233.523 234.738 233.754C234.882 233.899 234.977 233.915 235.089 234.188C237.181 234.91 238.874 236.658 241.029 237.156C241.147 237.279 241.293 237.371 241.455 237.424C241.616 237.477 241.788 237.49 241.956 237.461C242.419 237.754 242.925 237.97 243.457 238.102V237.942C243.507 238.016 243.58 238.073 243.664 238.102C243.68 238.075 243.688 238.045 243.688 238.014C243.688 237.983 243.68 237.953 243.664 237.926C245.261 237.926 243.169 235.776 242.978 235.247C242.291 233.418 244.574 233.642 245.74 233.899C248.678 234.685 252.718 236.354 254.363 239.177C254.227 239.718 253.889 240.186 253.42 240.484C252.95 240.783 252.385 240.889 251.84 240.782C251.505 240.942 250.802 241.07 250.371 241.295C250.371 241.295 250.211 241.648 250.148 241.744C250.294 241.99 250.471 242.217 250.674 242.418C251.042 243.108 252.271 243.397 252.766 243.637C252.859 243.703 252.961 243.751 253.07 243.782C253.332 243.966 253.617 244.117 253.916 244.231V244.071C254.331 244.279 255.194 244.391 255.513 243.782C256.79 243.076 255.736 240.3 258.116 241.279C259.473 241.824 260.974 243.349 262.427 242.482C263.481 242.643 264.28 242.595 265.046 243.365C265.525 245.707 263.577 245.803 261.852 246.573L261.677 246.67C261.677 246.862 261.533 247.055 261.469 247.247C261.405 247.44 261.549 247.456 261.565 247.568C261.581 247.527 261.581 247.481 261.565 247.44C261.741 248.114 263.162 249.205 263.705 249.044C264.966 250.504 267.473 248.579 268.783 247.905C269.644 247.385 270.567 246.975 271.529 246.686C272.599 246.445 273.222 247.023 274.116 246.975C275.196 247.736 276.003 248.828 276.416 250.087C276.719 251.13 276.416 252.814 277.789 253.103C281.286 255.574 285.486 249.894 289.079 249.782C289.314 249.756 289.552 249.776 289.779 249.842C290.006 249.909 290.218 250.02 290.402 250.169C290.586 250.318 290.739 250.503 290.852 250.712C290.965 250.921 291.035 251.15 291.059 251.387C291.187 252.301 290.516 253.087 290.628 253.97C290.664 254.185 290.743 254.392 290.861 254.575C290.979 254.759 291.134 254.917 291.315 255.039C291.495 255.16 291.699 255.244 291.913 255.283C292.128 255.323 292.348 255.318 292.56 255.269C293.566 255.061 293.885 254.018 294.7 253.585C295.164 253.315 295.703 253.203 296.235 253.268C296.768 253.332 297.265 253.568 297.652 253.941C298.04 254.314 298.296 254.803 298.382 255.335C298.469 255.866 298.382 256.412 298.133 256.89C297.501 257.76 296.694 258.487 295.764 259.024C294.834 259.56 293.802 259.893 292.736 260.002C291.624 260.797 290.282 261.197 288.919 261.141C288.562 261.08 288.223 260.936 287.931 260.721C287.638 260.507 287.398 260.227 287.231 259.903C287.064 259.58 286.974 259.222 286.968 258.858C286.961 258.494 287.039 258.133 287.195 257.804C287.61 256.601 288.712 254.964 287.706 253.921C287.454 253.742 287.17 253.615 286.869 253.546C286.568 253.477 286.257 253.469 285.953 253.521C285.649 253.573 285.358 253.685 285.097 253.85C284.836 254.015 284.61 254.23 284.432 254.483C283.667 255.266 283.007 256.145 282.468 257.098C281.866 257.902 281.131 258.597 280.296 259.152C280.057 259.152 280.041 259.152 279.945 259.264C277.118 259.264 275.362 256.424 275.713 253.52C275.266 252.349 274.691 249.814 273.014 251.916C272.529 252.658 272.158 253.469 271.913 254.323C271.457 255.031 271.051 255.771 270.699 256.537C269.965 257.05 269.105 257.352 268.213 257.409C267.32 257.465 266.429 257.275 265.637 256.857C263.609 255.94 261.849 254.515 260.527 252.718C259.409 251.354 258.435 250.312 259.681 248.691C260.032 248.21 260.958 247.408 260.942 246.702C260.91 246.299 260.728 245.923 260.432 245.649C260.136 245.376 259.748 245.224 259.345 245.226C257.413 244.279 256.711 246.83 255.705 248.001C255.021 248.693 254.137 249.151 253.18 249.309C252.222 249.468 251.24 249.319 250.371 248.884C249.014 248.386 244.878 246.525 245.852 244.616C246.267 243.766 247.561 243.718 248.072 243.012C248.302 242.549 248.374 242.023 248.276 241.515C248.178 241.007 247.915 240.546 247.529 240.204C247.018 239.61 244.702 238.215 244.702 239.771C244.495 240.172 244.702 240.862 244.59 241.375C244.393 241.899 244.227 242.435 244.095 242.98C243.409 243.268 243.01 244.103 242.499 244.488C241.855 244.981 241.085 245.281 240.279 245.354C240.099 245.331 239.916 245.331 239.736 245.354C237.41 244.389 235.339 242.895 233.684 240.99C233.098 240.343 232.638 239.593 232.327 238.776C232.119 237.733 232.981 236.995 232.949 235.968C232.949 234.22 229.899 231.845 229.277 234.364C228.973 235.648 229.66 236.546 229.021 237.846C228.606 238.664 228.127 239.45 227.105 239.45V239.546C222.187 238.856 227.217 233.401 224.374 231.38C223.464 230.738 221.069 229.968 220.031 230.578C218.434 231.508 220.398 233.434 218.434 234.236L218.051 234.107C215.959 233.674 213.26 231.54 213.611 229.054C213.755 228.091 214.857 227.449 214.873 226.535C214.69 225.658 214.175 224.887 213.436 224.385C213.214 224.103 212.919 223.89 212.584 223.768C212.248 223.646 211.885 223.621 211.536 223.695C210.466 223.871 210.45 224.481 210.498 225.46C210.625 227.786 210.37 228.973 208.214 230.161C207.301 230.044 206.421 229.742 205.628 229.273C204.834 228.805 204.144 228.178 203.599 227.433C202.865 226.15 203.599 223.968 203.599 222.62C203.424 221.593 201.252 220.791 200.406 220.599C196.845 218.465 198.346 212.464 202.657 214.598C204.153 215.633 205.366 217.029 206.186 218.657C206.985 219.78 208.981 221.866 210.242 219.973C211.248 218.497 209.252 217.871 209.348 216.523C209.444 216.539 209.06 216.844 209.284 216.812Z" fill="#9FCC29"/>
<path d="M224.823 198.524C224.823 198.524 210.813 196.767 204.415 200.834L204.831 203.413C204.831 203.413 227.35 207.59 241.825 216.83C256.299 226.071 271.285 237.748 275.3 242.146C275.3 242.146 292.189 234.235 306.279 241.529L307.415 239.14C304.93 235.35 301.57 232.199 297.611 229.947C291.485 226.656 246.863 213.428 224.823 198.524Z" fill="#FFCF08"/>
<path d="M281.697 237.675C278.498 238.205 275.875 238.784 275.875 238.784C261.481 227.01 250.829 217.873 239.234 212.372C228.106 207.031 216.43 202.931 204.415 200.146L204.831 202.768C204.831 202.768 227.35 207.015 241.825 216.409C256.299 225.803 271.285 237.675 275.3 242.146C275.3 242.146 292.189 234.103 306.279 241.519L307.415 239.09C295.532 233.975 285.903 236.951 281.697 237.675Z" fill="#EFA708"/>
<path d="M301.292 224.123C301.732 224.635 302.055 225.234 302.239 225.88C302.423 226.525 302.463 227.202 302.358 227.865C301.776 229.68 299.612 232.896 298.417 233.135C295.832 233.629 249.379 217.787 216.558 198.107C216.558 198.107 215.702 197.009 218.174 190.146C218.174 190.146 226.508 198.521 263.302 214.029C292.489 226.241 301.292 224.123 301.292 224.123Z" fill="#E72124"/>
<g style="mix-blend-mode:multiply" opacity="0.55">
<path d="M258.77 216.543C266.271 219.684 273.929 222.437 281.716 224.79C288.58 227.099 294.517 228.898 301.381 227.831C301.458 227.188 301.403 226.536 301.219 225.915C301.034 225.293 300.725 224.716 300.309 224.217C300.309 224.217 291.589 226.271 262.723 214.028C226.272 198.584 218.015 190.146 218.015 190.146C217.325 191.95 216.79 193.809 216.415 195.703C228.912 205.303 244.625 210.095 258.77 216.543Z" fill="#C42124"/>
</g>
<path d="M274.723 177.674C266.947 174.144 258.747 171.631 250.327 170.197C244.67 169.071 238.871 168.848 233.144 169.538C227.963 170.255 223.14 172.584 219.36 176.195C217.736 178.019 216.563 180.199 215.937 182.559C215.31 184.919 215.247 187.392 215.753 189.781C217.363 198.157 288.717 228.465 301.922 226.005C301.922 226.005 307.51 223.464 308.363 215.522C308.766 211.358 306.753 206.357 304.724 202.82C301.36 197.284 297.042 192.385 291.97 188.35C286.709 184.06 280.911 180.471 274.723 177.674V177.674Z" fill="#F89945"/>
<path d="M289.4 214.288C278.004 212.7 268.642 207.126 258.296 202.553C247.659 197.789 236.295 193.883 226.788 187.087C222.575 184.054 219.718 181.084 219.072 177.146C217.55 178.939 216.461 181.048 215.885 183.314C215.309 185.58 215.262 187.944 215.747 190.231C217.361 198.504 288.884 228.436 302.12 226.007C303.891 225.01 305.39 223.605 306.486 221.912C307.583 220.219 308.245 218.289 308.415 216.289C302.152 216.971 296.18 215.288 289.4 214.288Z" fill="#E8761F"/>
<g style="mix-blend-mode:screen" opacity="0.32">
<path d="M275.21 181.835C273.229 179.931 267.12 176.141 264.839 179.46C262.875 182.324 268.268 185.747 270.099 186.76C272.18 187.93 275.759 189.101 277.058 186.935C278.04 185.276 276.858 183.389 275.21 181.835Z" fill="#FDE5C1"/>
</g>
<g style="mix-blend-mode:screen" opacity="0.32">
<path d="M288.586 196.385C283.756 193.487 277.982 191.147 272.852 192.58C268.636 193.726 270.697 196.974 273.01 199.107C276.61 202.496 280.848 205.117 285.471 206.812C288.523 207.847 294.046 209.742 295.32 205.539C295.447 204.897 295.447 204.235 295.32 203.593C295.193 202.951 294.942 202.341 294.581 201.797C292.921 199.642 290.89 197.809 288.586 196.385V196.385Z" fill="#FDE5C1"/>
</g>
<path d="M252.415 179.584C252.415 180.428 251.347 181.146 249.967 181.146C248.588 181.146 247.445 180.553 247.416 179.709C247.386 178.865 248.499 178.146 249.878 178.146C251.258 178.146 252.4 178.756 252.415 179.584Z" fill="#FBD198"/>
<path d="M267.415 199.592C267.415 200.431 266.115 201.146 264.46 201.146C262.804 201.146 261.433 200.54 261.415 199.701C261.397 198.861 262.715 198.146 264.371 198.146C266.026 198.146 267.379 198.721 267.415 199.592Z" fill="#FBD198"/>
<path d="M284.415 205.584C284.415 206.428 283.347 207.146 281.952 207.146C280.558 207.146 279.445 206.537 279.416 205.709C279.386 204.881 280.499 204.146 281.878 204.146C283.258 204.146 284.4 204.756 284.415 205.584Z" fill="#FBD198"/>
<path d="M238.415 178.584C238.415 179.428 237.347 180.146 235.967 180.146C234.588 180.146 233.445 179.537 233.416 178.709C233.386 177.881 234.499 177.146 235.878 177.146C237.258 177.146 238.4 177.693 238.415 178.584Z" fill="#FBD198"/>
<path d="M303.415 207.584C303.415 208.428 302.133 209.146 300.46 209.146C298.787 209.146 297.451 208.537 297.416 207.709C297.38 206.881 298.715 206.146 300.371 206.146C302.026 206.146 303.326 206.771 303.415 207.584Z" fill="#FBD198"/>
<path d="M274.038 197.915C273.408 198.506 272.149 197.915 271.259 196.715C270.368 195.516 270.138 193.969 270.783 193.378C271.428 192.787 272.671 193.378 273.577 194.577C274.483 195.777 274.682 197.341 274.038 197.915Z" fill="#FBD198"/>
<path d="M291.389 200.224C291.154 200.998 289.577 201.349 288 201.027C286.423 200.706 285.209 199.844 285.444 199.069C285.68 198.295 287.257 197.944 288.834 198.265C290.411 198.587 291.607 199.464 291.389 200.224Z" fill="#FBD198"/>
<path d="M247.072 190.962C246.422 191.433 245.171 190.962 244.259 190.005C243.347 189.049 243.146 187.802 243.795 187.331C244.444 186.859 245.696 187.331 246.592 188.301C247.489 189.271 247.659 190.491 247.072 190.962Z" fill="#FBD198"/>
<path d="M260.082 191.987C259.474 192.471 258.226 191.815 257.306 190.519C256.387 189.223 256.14 187.789 256.748 187.305C257.356 186.822 258.604 187.478 259.524 188.774C260.443 190.07 260.69 191.504 260.082 191.987Z" fill="#FBD198"/>
<path d="M232.233 184.85C231.704 185.426 230.259 185.138 228.972 184.194C227.685 183.25 227.086 182.018 227.597 181.443C228.108 180.867 229.571 181.155 230.858 182.098C232.145 183.042 232.744 184.274 232.233 184.85Z" fill="#FBD198"/>
<path d="M284.02 190.984C283.361 191.408 282.111 190.984 281.222 189.91C280.333 188.835 280.152 187.733 280.811 187.309C281.469 186.885 282.719 187.309 283.608 188.383C284.497 189.457 284.678 190.56 284.02 190.984Z" fill="#FBD198"/>
<path d="M299.03 200.944C298.372 201.474 297.121 200.944 296.233 199.601C295.344 198.258 295.146 196.879 295.805 196.349C296.463 195.819 297.73 196.349 298.602 197.692C299.474 199.035 299.688 200.413 299.03 200.944Z" fill="#FBD198"/>
<path d="M260.02 178.944C259.361 179.472 258.111 178.944 257.222 177.606C256.333 176.268 256.152 174.877 256.811 174.348C257.469 173.82 258.719 174.348 259.608 175.687C260.497 177.025 260.678 178.416 260.02 178.944Z" fill="#FBD198"/>
<g style="mix-blend-mode:multiply" opacity="0.35">
<path d="M308.334 214.24C296.201 214.524 282.554 210.338 271.904 206.5C264.202 203.736 255.792 200.734 249.54 195.332C243.289 189.93 240.469 182.854 245.077 175.525C246.28 173.673 247.943 172.151 249.911 171.102C244.389 170.061 238.736 169.869 233.154 170.533C227.97 171.238 223.144 173.526 219.362 177.073C217.737 178.865 216.564 181.007 215.937 183.325C215.31 185.643 215.247 188.074 215.753 190.42C217.364 198.649 288.757 228.424 301.969 226.007C301.969 226.007 307.56 223.512 308.414 215.709C308.42 215.218 308.393 214.727 308.334 214.24Z" fill="#D48745"/>
</g>
<g style="mix-blend-mode:multiply" opacity="0.32">
<path d="M261.862 204.442L258.028 202.667C247.677 197.978 236.661 193.908 227.302 187.395C223.126 184.496 220.283 181.696 219.487 178.146C218.111 179.698 217.154 181.575 216.704 183.601C216.255 185.627 216.329 187.734 216.92 189.723C218.041 193.94 240.642 205.338 262.415 214.146C261.789 210.952 261.604 207.687 261.862 204.442Z" fill="#BA773D"/>
</g>
<path d="M219.104 280.296C214.797 284.202 208.628 285.305 206.214 282.644C203.801 279.982 203.777 276.384 208.084 272.478C212.391 268.572 215.542 268.588 217.956 271.249C220.369 273.91 223.412 276.39 219.104 280.296Z" fill="#FF3333"/>
<path d="M106.173 104.4C101.225 107.763 100.768 115.29 96.8598 119.821C92.9513 124.351 86.3307 125.456 83.4416 130.489C80.5525 135.521 83.1851 142.585 83.5532 148.749C83.3682 154.724 82.314 160.64 80.4241 166.312C79.0611 172.047 78.5452 178.438 81.7087 183.137C83.6399 185.656 86.2396 187.581 89.2115 188.693C92.1834 189.805 95.408 190.06 98.5179 189.428C104.839 188.024 110.848 185.467 116.244 181.885C132.239 173.201 147.494 163.217 161.856 152.034C165.217 149.699 168.044 146.676 170.149 143.166C171.139 141.428 171.609 139.442 171.505 137.445C171.4 135.448 170.725 133.523 169.559 131.898C167.417 129.548 163.951 128.954 161.534 126.893C157.151 123.187 156.69 116.998 151.207 113.955C146.465 111.939 141.351 110.947 136.199 111.046C132.993 110.905 129.827 110.284 126.805 109.203C123.835 107.983 121.328 105.766 118.198 104.405C116.355 103.397 114.288 102.868 112.187 102.867C110.086 102.866 108.018 103.393 106.173 104.4V104.4Z" fill="#D2923D"/>
<g style="mix-blend-mode:screen" opacity="0.32">
<path d="M103.025 147.771C111.961 144.283 109.743 138.384 113.374 131.307C115.32 127.183 118.408 123.703 122.272 121.282C126.267 118.58 131.093 117.388 135.886 117.919C141.323 118.905 145.457 122.809 150.736 124.017C153.39 124.564 156.147 124.299 158.649 123.256C156.546 119.894 155.192 116.072 151.264 113.872C146.522 111.855 141.408 110.864 136.256 110.962C133.05 110.821 129.883 110.2 126.862 109.119C123.892 107.9 121.385 105.683 118.255 104.321C116.407 103.336 114.342 102.83 112.248 102.848C110.154 102.866 108.098 103.408 106.267 104.425C101.318 107.788 100.862 115.315 96.9534 119.846C93.0449 124.376 86.4243 125.481 83.5352 130.514C80.6461 135.546 82.8704 141.545 83.5153 147.289C89.7139 149.953 96.7009 150.126 103.025 147.771V147.771Z" fill="#A24B27"/>
</g>
<g style="mix-blend-mode:multiply" opacity="0.55">
<path d="M89.9908 157.486C95.4832 155.916 104.52 153.905 104.51 147.013C101.216 150.359 96.9336 152.559 92.2955 153.287C89.147 153.482 86.0385 152.501 83.572 150.535C83.4258 153.744 82.9207 156.927 82.066 160.024C84.6174 159.352 87.261 158.21 89.9908 157.486Z" fill="#B9866E"/>
</g>
<g style="mix-blend-mode:multiply" opacity="0.55">
<path d="M111.17 124.358C112.533 123.421 113.957 122.578 115.434 121.834C118.85 120.789 122.177 119.47 125.381 117.89C127.858 115.895 129.711 113.23 130.721 110.213C129.358 109.982 128.019 109.625 126.721 109.148C125.723 108.709 124.758 108.198 123.833 107.62V107.62C123.03 110.137 121.872 112.526 120.394 114.716C117.835 118.386 112.208 120.216 111.17 124.358Z" fill="#B9866E"/>
</g>
<g style="mix-blend-mode:multiply" opacity="0.55">
<path d="M141.209 142.216C136.267 144.196 130.525 142.37 128.318 149.299C127.61 152.198 126.118 154.846 124.006 156.952C123.614 157.31 123.161 157.651 122.738 158C129.129 158.746 133.339 150.735 137.93 146.98C140.683 145.206 143.115 142.978 145.122 140.39C143.852 141.068 142.545 141.678 141.209 142.216V142.216Z" fill="#B9866E"/>
</g>
<g style="mix-blend-mode:multiply" opacity="0.55">
<path d="M134.001 126.351C133.935 126.553 133.88 126.758 133.837 126.966C136.282 126.048 138.82 125.397 141.405 125.026C146.658 124.088 151.438 121.399 154.97 117.397C153.946 115.943 152.614 114.733 151.07 113.853C148.89 112.733 146.535 111.995 144.106 111.668C143.901 114.378 142.902 116.967 141.234 119.112C139.153 121.855 135.529 123.461 134.001 126.351Z" fill="#B9866E"/>
</g>
<g style="mix-blend-mode:multiply" opacity="0.55">
<path d="M169.375 131.85C169.087 137.509 165.715 142.249 157.626 143.918C149.537 145.588 148.862 153.815 142.1 157.058C135.338 160.301 128.588 158.305 124.434 164.254C123.086 166.193 121.293 167.78 119.205 168.882C117.116 169.984 114.795 170.568 112.434 170.585C107.729 170.683 106.102 177.041 102.753 179.347C100.742 180.739 98.5593 181.864 96.2595 182.695C88.5173 185.413 83.5327 182.107 79.5529 176.761C79.73 179.067 80.4584 181.296 81.6767 183.261C83.6253 185.763 86.2368 187.668 89.2143 188.758C92.1917 189.848 95.4155 190.081 98.5188 189.428C104.84 188.024 110.849 185.467 116.245 181.886C132.24 173.201 147.495 163.217 161.857 152.034C165.218 149.699 168.045 146.676 170.15 143.166C171.14 141.428 171.61 139.443 171.506 137.445C171.401 135.448 170.725 133.523 169.559 131.899L169.375 131.85Z" fill="#B9866E"/>
</g>
<path d="M161.716 146.623C161.247 149.004 161.055 150.963 158.827 152.15C156.448 153.439 153.658 153.738 151.06 152.983C150.702 156.184 151.28 158.217 147.868 159.649C145.489 160.646 142.915 161.088 140.341 160.941C139.726 163.25 139.993 164.474 137.757 165.692C134.966 167.28 131.718 167.869 128.548 167.36C126.213 173.035 121.695 176.513 116.838 174.956C116.405 176.738 115.284 178.277 113.721 179.235C110.702 180.919 107.207 181.543 103.792 181.009C100.378 186.033 98.1922 188.55 92.5847 188.573L135.106 225.25C152.083 221.21 167.687 212.739 180.328 200.702L168.263 144.312C166.447 145.876 164.111 146.701 161.716 146.623V146.623Z" fill="#BE4C1B"/>
<path d="M103.829 185.568C112.068 199.804 123.322 212.062 136.801 221.482C136.801 221.482 121.678 191.542 103.829 185.568Z" fill="#8F3300"/>
<path d="M118.143 178.962C118.143 178.962 126.125 203.671 146.467 218.221C146.467 218.221 134.072 186.7 118.143 178.962Z" fill="#8F3300"/>
<path d="M130.671 171.388C134.993 187.331 143.719 201.733 155.848 212.94C155.848 212.94 144.292 180.62 130.671 171.388Z" fill="#8F3300"/>
<path d="M142.57 165.062C142.57 165.062 147.079 191.681 162.977 207.948C162.977 207.948 154.926 176.694 142.57 165.062Z" fill="#8F3300"/>
<path d="M153.92 159.316C155.157 175.062 160.324 190.244 168.947 203.472C168.947 203.472 165.226 174.888 153.92 159.316Z" fill="#8F3300"/>
<path d="M163.536 152.284C163.919 168.519 167.597 184.507 174.349 199.274C174.349 199.274 173.16 166.748 163.536 152.284Z" fill="#8F3300"/>
<g style="mix-blend-mode:multiply" opacity="0.5">
<path d="M152.16 194.254C143.457 196.126 134.386 195.198 126.243 191.604C121.974 189.939 117.739 188.152 113.591 186.157C111.16 185.015 108.851 183.543 106.486 182.154C103.301 186.812 101.326 189.154 96.0266 189.259L135.664 223.157C151.418 219.364 165.889 211.47 177.608 200.274L173.63 181.808C167.57 187.613 160.207 191.881 152.16 194.254Z" fill="#9E5838"/>
</g>
<g style="mix-blend-mode:screen" opacity="0.32">
<path d="M136.964 114.612C136.679 114.537 136.381 114.523 136.091 114.57C135.8 114.618 135.522 114.726 135.276 114.888L124.874 119.799C123.304 120.444 121.832 121.306 120.501 122.359C119.144 123.448 118.263 125.023 118.047 126.75C117.952 127.556 118.12 128.372 118.527 129.074C118.934 129.777 119.557 130.329 120.304 130.647C121.039 130.776 121.796 130.703 122.494 130.436C123.191 130.169 123.804 129.718 124.266 129.131C125.226 127.952 126.009 126.639 126.589 125.234C127.199 123.824 128.097 122.558 129.226 121.518C131.642 119.623 135.43 119.874 137.02 117.001C137.748 116.37 137.854 114.981 136.964 114.612Z" fill="#B27B60"/>
</g>
<g style="mix-blend-mode:screen" opacity="0.32">
<path d="M87.3136 137.355L86.4775 141.979C86.2045 142.968 86.2232 144.015 86.5313 144.993C87.0351 145.746 87.8129 146.271 88.6989 146.458C89.5848 146.645 90.5087 146.478 91.2734 145.992C94.0072 144.512 95.1245 141.183 96.5967 138.377C98.2309 135.383 100.53 132.804 103.317 130.837C104.317 130.232 105.247 129.518 106.091 128.708C106.525 128.296 106.861 127.791 107.073 127.231C107.285 126.671 107.368 126.07 107.315 125.474C107.133 124.755 106.722 124.116 106.144 123.653C105.565 123.189 104.852 122.927 104.111 122.906C102.62 122.886 101.144 123.215 99.8022 123.868C97.5471 124.707 95.3849 125.777 93.3502 127.062C91.3291 128.387 89.7003 130.23 88.6336 132.399C87.9878 133.989 87.5443 135.654 87.3136 137.355V137.355Z" fill="#B27B60"/>
</g>
<g style="mix-blend-mode:screen" opacity="0.32">
<path d="M146.478 136.663C145.268 137.348 144.128 138.148 143.073 139.053C140.507 140.92 137.413 141.92 134.24 141.909C137.183 139.558 139.717 136.735 141.737 133.554C143.765 130.358 146.801 127.93 150.363 126.654C151.302 126.394 152.288 126.352 153.245 126.533C154.202 126.713 155.105 127.111 155.884 127.696C156.626 128.372 157.122 129.275 157.294 130.264C157.466 131.253 157.305 132.271 156.835 133.158C156.274 133.917 155.553 134.541 154.722 134.987C153.891 135.433 152.971 135.688 152.03 135.735C150.142 135.75 148.268 136.063 146.478 136.663V136.663Z" fill="#B27B60"/>
</g>
<g style="mix-blend-mode:screen" opacity="0.32">
<path d="M111.085 147.94C111.387 148.475 111.827 148.92 112.358 149.23C112.889 149.539 113.493 149.702 114.108 149.701C115.356 149.693 116.58 149.36 117.66 148.735C122.175 145.881 125.944 141.991 128.656 137.389C129.288 136.502 129.911 135.152 129.15 134.422C128.907 134.214 128.621 134.063 128.312 133.981C128.003 133.898 127.68 133.887 127.365 133.946C121.753 134.939 116.644 137.809 112.874 142.087C112.112 142.912 111.501 143.865 111.07 144.903C110.87 145.385 110.769 145.901 110.771 146.423C110.774 146.944 110.88 147.46 111.085 147.94V147.94Z" fill="#B27B60"/>
</g>
<g style="mix-blend-mode:screen" opacity="0.32">
<path d="M95.9377 162.004C94.5879 162.876 93.1472 163.597 91.6411 164.156C89.649 164.604 87.7278 165.324 85.9314 166.295C85.078 166.921 84.4044 167.76 83.9786 168.729C83.5528 169.698 83.3897 170.762 83.5059 171.814C83.6537 172.839 84.0806 173.803 84.74 174.601C85.3993 175.398 86.2655 175.999 87.2436 176.337C88.3543 176.622 89.5141 176.66 90.6411 176.447C91.768 176.235 92.8347 175.777 93.7657 175.107C95.632 173.728 97.3288 172.133 98.8207 170.355C100.312 168.559 102.131 167.064 104.179 165.947C105.836 165.168 107.764 164.857 109.368 164.032C110.229 163.69 110.984 163.127 111.56 162.401C112.135 161.675 112.509 160.81 112.645 159.894C112.638 159.143 112.41 158.411 111.99 157.789C111.57 157.167 110.976 156.682 110.282 156.396C108.861 155.864 107.298 155.857 105.872 156.375C104.409 156.939 103.018 157.676 101.729 158.569C99.8425 159.714 97.886 160.875 95.9377 162.004Z" fill="#B27B60"/>
</g>
<path d="M115.977 110.77L115.362 110.606C115.047 110.328 114.672 110.127 114.266 110.018C113.86 109.91 113.435 109.898 113.023 109.983C112.209 110.203 111.452 110.598 110.804 111.139C109.609 112.035 108.58 113.133 107.765 114.385C107.409 114.82 107.174 115.341 107.084 115.896C106.994 116.451 107.052 117.02 107.253 117.545C107.429 117.804 107.665 118.017 107.941 118.165C108.217 118.314 108.525 118.393 108.839 118.396C109.458 118.416 110.074 118.299 110.643 118.053C112.257 117.486 113.726 116.572 114.948 115.375C115.786 114.623 116.346 113.611 116.537 112.501C116.523 111.443 117.003 110.878 115.977 110.77Z" fill="#652700"/>
<path d="M84.9843 139.669C85.9073 139.915 86.9101 139.49 87.6997 138.876C88.5779 138.287 89.3216 137.519 89.8816 136.622C90.1792 136.158 90.3782 135.639 90.4663 135.095C90.5544 134.551 90.5298 133.995 90.3939 133.462C90.2562 132.958 89.955 132.514 89.5377 132.2C89.1203 131.886 88.6105 131.719 88.0883 131.727C88.0449 131.687 87.9941 131.655 87.9386 131.635C87.8832 131.615 87.8243 131.606 87.7654 131.609C87.7064 131.611 87.6486 131.626 87.5952 131.651C87.5418 131.676 87.494 131.712 87.4545 131.756L86.347 131.955C85.3902 132.533 84.628 133.384 84.1582 134.398C83.6883 135.413 83.5323 136.545 83.7102 137.648C83.7357 138.065 83.8658 138.469 84.0885 138.822C84.3112 139.175 84.6192 139.467 84.9843 139.669Z" fill="#B27B60"/>
<path d="M141.042 131.094C140.11 130.62 139.075 130.382 138.03 130.403C136.984 130.423 135.959 130.701 135.046 131.212C134.36 131.575 133.783 132.116 133.377 132.778C132.917 133.385 132.714 134.147 132.811 134.902C132.964 135.511 133.315 136.051 133.808 136.439C134.301 136.827 134.908 137.04 135.536 137.045C136.796 137.033 138.03 136.678 139.104 136.018C139.698 135.797 140.236 135.449 140.681 134.998C141.125 134.547 141.466 134.004 141.678 133.407C142.135 131.814 142.104 131.806 141.042 131.094Z" fill="#652700"/>
<path d="M118.967 125.643C118.15 125.439 117.289 125.502 116.51 125.823C115.732 126.143 115.075 126.704 114.638 127.424C113.76 128.909 113.256 130.586 113.172 132.309C113.051 132.783 113.04 133.278 113.142 133.757C113.243 134.235 113.453 134.684 113.755 135.068C114.631 135.862 116.005 135.404 117.127 134.78C118.951 133.608 120.394 131.93 121.279 129.952C121.606 129.42 121.784 128.81 121.793 128.186C121.803 127.562 121.644 126.947 121.334 126.406C120.44 125.31 120.167 125.963 118.967 125.643Z" fill="#652700"/>
<path d="M88.4243 168.937C89.0062 167.618 89.3796 166.216 89.5312 164.781C89.6232 164.467 89.6479 164.137 89.6036 163.813C89.5594 163.489 89.4473 163.178 89.2745 162.9C89.1383 162.772 88.9757 162.676 88.7981 162.618C88.6205 162.56 88.4324 162.542 88.2471 162.565C88.0618 162.588 87.8838 162.652 87.7257 162.751C87.5676 162.851 87.4333 162.984 87.3323 163.141L86.6206 163.215L86.4667 163.174L86.2637 163.318C85.4239 163.427 84.6548 163.845 84.1062 164.49C83.5661 165.143 83.1183 165.867 82.7754 166.641C82.4285 167.188 82.2019 167.802 82.1107 168.443C82.0196 169.084 82.066 169.736 82.2468 170.358C82.5547 170.953 83.0637 171.42 83.6833 171.676C84.3029 171.932 84.9931 171.959 85.6313 171.754C86.2691 171.508 86.8478 171.13 87.3293 170.645C87.8107 170.159 88.1839 169.577 88.4243 168.937V168.937Z" fill="#652700"/>
<path d="M102.331 175.114C103.061 175.426 103.859 175.545 104.648 175.461C105.438 175.377 106.192 175.092 106.841 174.634C108.157 173.69 109.294 172.519 110.2 171.177C110.555 170.789 110.832 170.337 111.016 169.845C111.095 169.604 111.107 169.346 111.051 169.099C110.995 168.852 110.873 168.624 110.698 168.441C110.521 168.292 110.314 168.183 110.09 168.124C109.867 168.064 109.633 168.055 109.406 168.097C108.948 168.206 108.497 168.415 108.048 168.494C107.039 168.477 106.037 168.332 105.066 168.062C104.201 167.985 103.335 168.179 102.586 168.618C101.837 169.056 101.244 169.718 100.888 170.51C100.523 171.321 100.469 172.238 100.734 173.086C101 173.935 101.568 174.656 102.331 175.114V175.114Z" fill="#652700"/>
<path d="M122.258 154.114C122.752 153.416 123.163 152.662 123.482 151.868C123.605 151.643 123.673 151.391 123.678 151.134C123.683 150.877 123.627 150.623 123.512 150.393C123.096 149.853 122.251 150.057 121.607 150.248L118.438 151.382C117.656 151.62 116.91 151.965 116.221 152.407C115.53 152.866 115.045 153.576 114.87 154.388C114.797 154.96 114.92 155.54 115.22 156.033C115.52 156.526 115.978 156.903 116.519 157.102C117.085 157.29 117.685 157.349 118.276 157.272C118.867 157.195 119.434 156.986 119.932 156.659C120.872 155.978 121.664 155.111 122.258 154.114V154.114Z" fill="#652700"/>
<path d="M139.711 153.652C139.527 153 139.097 152.445 138.511 152.105C137.926 151.764 137.231 151.665 136.573 151.827C135.889 152.024 135.262 152.38 134.743 152.867C134.224 153.353 133.828 153.956 133.587 154.626C133.092 155.936 132.909 157.343 133.052 158.736C133.026 158.961 133.051 159.189 133.125 159.403C133.199 159.617 133.321 159.811 133.481 159.971C133.726 160.105 134.003 160.172 134.282 160.166C134.561 160.159 134.834 160.079 135.073 159.933C136.789 159.192 138.211 157.9 139.115 156.263C139.619 155.492 139.831 154.566 139.711 153.652Z" fill="#652700"/>
<path d="M160.095 139.103C160.75 138.88 161.345 138.508 161.834 138.017C162.337 137.497 162.626 136.806 162.641 136.083C162.656 135.359 162.398 134.656 161.917 134.116C161.499 133.756 161.005 133.496 160.473 133.354C159.94 133.212 159.382 133.192 158.84 133.296C157.429 133.489 156.082 134.011 154.909 134.821C154.026 135.38 153.337 136.198 152.934 137.163C152.734 137.623 152.679 138.134 152.778 138.626C152.877 139.118 153.124 139.567 153.486 139.914C153.896 140.165 154.357 140.32 154.835 140.368C155.313 140.415 155.796 140.354 156.247 140.188C157.561 139.948 158.849 139.585 160.095 139.103V139.103Z" fill="#652700"/>
<path d="M101.866 139.748C101.18 139.538 100.459 139.469 99.7453 139.546C98.5537 139.91 97.495 140.616 96.7004 141.576C95.9058 142.537 95.4102 143.709 95.2749 144.948C95.1866 145.395 95.2126 145.858 95.3503 146.292C95.4881 146.726 95.7332 147.119 96.0629 147.433C96.3392 147.635 96.6621 147.764 97.0015 147.809C97.341 147.853 97.6862 147.811 98.0053 147.687C98.6691 147.441 99.2691 147.048 99.7608 146.539C100.604 145.735 101.336 144.821 101.934 143.821C102.311 143.229 102.575 142.573 102.714 141.886C102.769 141.547 102.756 141.201 102.675 140.868C102.594 140.535 102.446 140.221 102.241 139.947C101.788 139.298 102.442 139.44 101.866 139.748Z" fill="#652700"/>
<path d="M86.2141 139.996C87.6852 139.591 89.0272 138.813 90.1107 137.738C90.6323 137.176 91.0083 136.495 91.2056 135.755C91.4029 135.014 91.4154 134.236 91.2421 133.49C91.03 132.852 90.6358 132.291 90.1083 131.875C89.5808 131.459 88.9431 131.207 88.2739 131.149L87.997 131.076C87.2926 131.303 86.6534 131.697 86.1342 132.224C85.615 132.752 85.2311 133.397 85.0153 134.106C84.5905 135.529 84.3853 137.008 84.4068 138.493C84.3591 138.767 84.3746 139.047 84.4521 139.314C84.5297 139.58 84.6672 139.825 84.8542 140.03C85.2112 140.422 85.6931 140.22 86.2141 139.996Z" fill="#652700"/>
<path d="M55.6906 168.721C56.6258 171.739 55.7531 175.03 53.8886 175.608C52.0241 176.186 50.2465 175.372 49.3113 172.355C48.376 169.337 49.1066 167.789 50.9711 167.211C52.8356 166.633 54.7554 165.704 55.6906 168.721Z" fill="#D56C48"/>
<path d="M176.104 108.296C171.797 112.202 165.628 113.305 163.214 110.644C160.801 107.982 160.777 104.384 165.084 100.478C169.391 96.5725 172.542 96.5876 174.956 99.2488C177.369 101.91 180.412 104.39 176.104 108.296Z" fill="#D56C48"/>
<circle cx="84.4995" cy="243.5" r="3.5" fill="#A73D22"/>
</svg>
